<?xml version="1.0" encoding="utf-8"?>
<svg xmlns="http://www.w3.org/2000/svg" xmlns:xlink="http://www.w3.org/1999/xlink" version= "1.1" width="1618px" height="1000px" viewBox="-449 211 1618 1000">
<g id="layer1">
<g style="fill:rgb(5,180,205); fill-opacity:0.99607843; stroke-linejoin: miter">
<path d="M-450.49435,203.98047L363.51913,203.98097L1177.5326,203.98148L1177.5326,1220.3936Q363.51913,1220.394,-450.49435,1220.3945Q-450.49435,712.1875,-450.49435,203.98047"/>
</g>
<g style="fill:rgb(154,224,255); fill-opacity:0.99607843; stroke-linejoin: miter">
<path d="M-26.276525,429.4338C-26.300146,429.4338,-26.32369,429.4345,-26.347128,429.4359L-26.347136,429.4359C-26.362097,429.43588,-26.373365,429.43582,-26.37361,429.43582L-26.374289,429.43582C-39.78992,429.4362,-50.096607,439.76373,-50.14885,453.18994L-52.004036,928.98224C-52.05664,942.44385,-41.77396,952.8039,-28.315704,952.8877L-28.312874,952.8877L784.4467,956.02734L784.4466,956.02734C784.48376,956.02747,784.49493,956.0275,784.4977,956.0276C784.4989,956.0276,784.5078,956.0275,784.54944,956.0275C797.96075,956.0275,808.271,945.7633,808.3233,932.3369L810.1796,456.54227C810.23206,443.10797,799.994,432.69354,786.5637,432.6325L786.562,432.6325C786.5536,432.6325,786.4801,432.6323,786.4712,432.63226L786.4859,432.63226L-26.27181,429.4338 Z"/>
</g>
<g style="fill:rgb(255,229,0); fill-opacity:0.99607843; stroke-linejoin: miter">
<path d="M241.57132,595.9726L241.57138,595.9727L241.57144,595.97296L241.57138,595.9727L241.57132,595.9726L241.57138,595.9727L241.57144,595.97296Q241.57138,595.9727,241.57132,595.9726"/>
</g>
<g style="fill:rgb(0,0,0); fill-opacity:1.0; stroke-linejoin: miter">
<path d="M-26.158445,400.36124C-55.204906,400.24814,-79.11055,424.02777,-79.22359,453.07495L-81.078896,928.8688C-81.192055,957.9141,-57.472584,981.81934,-28.426155,981.93274L784.333,985.13196C813.3794,985.2156,837.285,961.4958,837.3982,932.45026L839.25476,456.65732C839.3679,427.60983,815.649,403.64468,786.60205,403.5313L-26.158545,400.39267 Z M-26.276525,430.63193L786.48376,433.83038C799.2834,433.85025,809.0315,443.7339,808.9815,456.53757L807.12524,932.3322C807.0753,945.1314,797.2505,954.8793,784.45135,954.8292L-28.308243,951.6896C-41.107567,951.60986,-50.85595,941.78595,-50.805935,928.98694L-48.950745,453.1946C-48.90093,440.3914,-39.07569,430.5843,-26.27648,430.63416 Z"/>
</g>
<g style="fill:rgb(0,0,0); fill-opacity:1.0; stroke-linejoin: miter">
<path d="M-129.73676,990.27686C-129.86139,1022.2306,-107.89619,1048.052,-80.49634,1048.1589L835.8856,1051.7625C863.2848,1051.8396,885.45135,1026.1937,885.57605,994.23627L-129.73724,990.30646 Z"/>
</g>
<g style="fill:rgb(0,0,0); fill-opacity:1.0; stroke-linejoin: miter">
<path d="M302.2674,1004.0715L453.4759,1004.691C455.80914,1004.67004,457.68,1006.5548,457.67108,1008.8909C457.66193,1011.2234,455.77618,1013.09534,453.44318,1013.0862L302.23444,1012.52673C299.90152,1012.4878,298.0308,1010.6029,298.03976,1008.2687C298.04895,1005.9365,299.93423,1004.0625,302.2674,1004.0715 Z"/>
</g>
<g style="fill:rgb(253,217,8); fill-opacity:1.0; stroke-linejoin: miter">
<path d="M376.62515,713.542L377.89365,689.9405Q388.21375,618.52515,442.362,575.0653Q496.89008,531.62897,571.6674,538.69446Q643.0829,549.01373,686.5449,603.1611Q700.4724,620.6658,709.6168,641.4081L717.353,662.75336Q723.78845,684.80536,724.17944,708.8672Q723.30774,782.7388,674.9303,832.4342Q626.5535,882.1264,552.7338,884.9837Q478.86374,884.1106,429.17078,835.73535Q379.47836,787.36,376.62515,713.542"/>
</g>
<g style="fill:rgb(238,170,1); fill-opacity:1.0; stroke-linejoin: miter">
<path d="M403.82068,712.7375L404.8941,692.83014Q413.59998,632.5924,459.27206,595.93164Q505.26654,559.29614,568.34186,565.25543Q628.57806,573.9599,665.239,619.63477Q676.9846,634.40045,684.6964,651.8937L691.22473,669.89966Q696.65234,688.49817,696.9823,708.79626Q696.24756,771.10645,655.44055,813.0223Q614.6368,854.94006,552.36786,857.34924Q490.06052,856.61206,448.14545,815.80853Q406.2307,775.0031,403.82068,712.7375"/>
</g>
<g style="fill:rgb(255,183,13); fill-opacity:1.0; stroke-linejoin: miter">
<path d="M407.40332,712.6335L408.4505,693.2123Q416.9436,634.4469,461.4996,598.68207Q506.3698,562.9419,567.9039,568.75555Q626.668,577.2474,662.433,621.80585Q673.8916,636.2109,681.4149,653.2763L687.78357,670.8425Q693.0786,688.9864,693.4005,708.78845Q692.6837,769.576,652.874,810.4672Q613.06744,851.3608,552.3204,853.71106Q491.5357,852.9919,450.64487,813.1856Q409.75458,773.37695,407.40332,712.6335"/>
</g>
<g>
<g>
<g style="fill:rgb(244,174,3); fill-opacity:1.0; stroke-linejoin: miter">
<path d="M544.9062,646.5393Q558.9931,646.59564,567.2933,652.60535Q575.37994,658.61426,575.3311,670.7802Q575.28046,683.3729,567.57086,689.7455Q559.86224,695.90436,545.3486,695.8465L529.7675,695.78394L529.9622,647.3334Q532.7386,646.91754,536.79474,646.72034Q540.6374,646.5222,544.9062,646.5393 Z M547.6243,713.7844Q555.30817,713.8152,561.91864,715.3357Q568.5301,716.643,573.4256,720.07776Q578.10846,723.2982,580.8608,728.85876Q583.6141,734.20557,583.58234,742.10315Q583.54974,750.2137,580.54,755.5373Q577.53143,760.6482,572.39594,763.82904Q567.2614,766.79663,560.4262,768.05Q553.8045,769.30383,546.1208,769.2731Q541.6385,769.25507,536.94366,769.0228Q532.46234,768.7913,529.476,768.3526L529.6955,713.7127 Z M542.8404,629.4556Q533.0223,629.4165,523.415,630.0183Q513.80756,630.62024,508.46735,631.6661L507.851,785.1276Q516.3842,786.2293,525.98566,787.12146Q535.5877,787.8004,543.6982,787.8327Q556.7181,787.88513,568.25323,785.58356Q579.5749,783.281,588.13385,777.97925Q596.4797,772.67706,601.4239,763.94556Q606.36725,755.4278,606.41693,743.0484Q606.45807,732.8034,603.2856,725.53326Q600.32574,718.4782,595.4356,713.76276Q590.5452,709.0473,584.3658,706.4611Q578.3997,703.8762,572.4261,703.21173Q577.1268,701.95,581.62103,698.97986Q586.11444,696.22314,589.54755,691.7546Q592.9797,687.4995,595.13727,681.745Q597.0806,676.2037,597.1071,669.58685Q597.15106,658.7016,593.1263,651.0014Q589.3145,643.51544,582.0771,638.57733Q575.05255,633.8536,565.0296,631.67896Q555.0063,629.5044,542.8404,629.4556 Z"/>
</g>
</g>
<g>
<g style="fill:rgb(244,174,3); fill-opacity:1.0; stroke-linejoin: miter">
<path d="M556.2541,645.6754Q570.341,645.7319,578.6412,651.74146Q586.72797,657.75037,586.679,669.9163Q586.62836,682.5093,578.9189,688.8816Q571.21027,695.0407,556.6965,694.9826L541.1154,694.92L541.31,646.4693Q544.0865,646.05365,548.14264,645.85645Q551.9854,645.6583,556.2541,645.6754 Z M558.9721,712.92053Q566.65607,712.9513,573.26654,714.4718Q579.878,715.7791,584.7735,719.2141Q589.45636,722.4343,592.2087,727.9949Q594.962,733.3419,594.93036,741.23926Q594.89777,749.3498,591.8879,754.67365Q588.8792,759.7843,583.74384,762.96515Q578.6093,765.933,571.7741,767.1861Q565.1523,768.43994,557.4687,768.4092Q552.9864,768.3912,548.29156,768.15894Q543.81024,767.9277,540.8239,767.4887L541.0434,712.8486 Z M554.1883,628.592Q544.3702,628.5526,534.7629,629.1544Q525.15546,629.75635,519.81525,630.8022L519.1989,784.26373Q527.73224,785.3654,537.33356,786.25757Q546.9356,786.9364,555.0462,786.9688Q568.066,787.02124,579.601,784.71967Q590.92267,782.41736,599.4819,777.11566Q607.82745,771.8132,612.7718,763.08167Q617.715,754.5639,617.76483,742.1845Q617.80597,731.93945,614.6336,724.6696Q611.67377,717.6143,606.7835,712.89886Q601.89325,708.1834,595.7138,705.5975Q589.74774,703.0123,583.774,702.34784Q588.4748,701.0861,592.96906,698.11597Q597.46246,695.35925,600.89545,690.8907Q604.3276,686.6356,606.48505,680.8811Q608.4284,675.3398,608.45514,668.72296Q608.49896,657.8377,604.4744,650.1375Q600.6624,642.6517,593.42523,637.71344Q586.40045,632.9897,576.3775,630.8152Q566.3543,628.6406,554.1883,628.592 Z"/>
</g>
</g>
<g style="fill:rgb(244,174,3); fill-opacity:1.0; stroke-linejoin: miter">
<path d="M523.21564,614.50134L533.7187,614.5773L544.2216,614.65314Q544.1539,624.02606,544.086,633.3989Q533.58307,633.32336,523.08,633.2474Q523.1479,623.8743,523.21564,614.50134"/>
</g>
<g style="fill:rgb(244,174,3); fill-opacity:1.0; stroke-linejoin: miter">
<path d="M555.2712,614.7329L576.27716,614.8849L576.14154,633.6307L555.13556,633.47894L555.2712,614.7329"/>
</g>
<g style="fill:rgb(244,174,3); fill-opacity:1.0; stroke-linejoin: miter">
<path d="M552.966,780.6726L563.4688,780.749L573.97174,780.8254Q573.8819,793.2742,573.7917,805.7224Q563.28876,805.6471,552.7858,805.5715Q552.87604,793.12244,552.966,780.6726"/>
</g>
<g style="fill:rgb(244,174,3); fill-opacity:1.0; stroke-linejoin: miter">
<path d="M521.75006,786.59985L542.75604,786.7517L542.6204,805.4972L521.61444,805.34564L521.75006,786.59985"/>
</g>
<g style="fill:rgb(244,174,3); fill-opacity:1.0; stroke-linejoin: miter">
<path d="M530.93304,628.6101L486.82248,628.29205L486.63077,654.79193L530.7414,655.11176L530.93304,628.6101"/>
</g>
<g style="fill:rgb(244,174,3); fill-opacity:1.0; stroke-linejoin: miter">
<path d="M529.9671,762.1737L507.91205,762.01495L485.85672,761.85565Q485.7609,775.1058,485.66513,788.3558Q507.7204,788.5157,529.7756,788.67566Q529.8715,775.4246,529.9671,762.1737"/>
</g>
</g>
<g>
<g>
<g style="fill:rgb(253,217,8); fill-opacity:1.0; stroke-linejoin: miter">
<path d="M542.5369,645.70605Q556.62384,645.7625,564.92413,651.7722Q573.0108,657.7811,572.962,669.9471Q572.9112,682.5398,565.2017,688.91235Q557.4931,695.0715,542.9792,695.0133L527.39825,694.95074L527.5931,646.5002Q530.36945,646.0843,534.4256,645.8872Q538.26825,645.68896,542.5369,645.70605 Z M545.25507,712.9513Q552.939,712.98206,559.5494,714.50256Q566.16095,715.8099,571.0562,719.2446Q575.7391,722.4651,578.4915,728.02563Q581.2448,733.37244,581.21295,741.2698Q581.1805,749.38055,578.17084,754.70416Q575.16205,759.81506,570.0268,762.9959Q564.89215,765.96375,558.05695,767.2168Q551.43524,768.4707,543.7515,768.43994Q539.2692,768.42194,534.5745,768.1897Q530.0932,767.95844,527.1069,767.5195L527.32623,712.8796 Z M540.4711,628.6225Q530.65314,628.5834,521.0457,629.18506Q511.43842,629.7871,506.0982,630.83295L505.48187,784.2945Q514.0151,785.3962,523.6164,786.2883Q533.21844,786.9674,541.32904,786.9997Q554.3488,787.052,565.884,784.7504Q577.2055,782.4481,585.7646,777.1464Q594.1103,771.8439,599.0545,763.1127Q603.9981,754.59467,604.04767,742.2152Q604.0888,731.9702,600.91644,724.7004Q597.9566,717.6451,593.06635,712.9296Q588.17596,708.2142,581.9965,705.62823Q576.0306,703.0431,570.05695,702.3786Q574.7576,701.1169,579.2518,698.1467Q583.7453,695.39,587.1783,690.92145Q590.6104,686.6664,592.7679,680.91187Q594.71124,675.37054,594.738,668.7537Q594.7818,657.86847,590.75714,650.1682Q586.94525,642.6823,579.70795,637.7441Q572.6834,633.02045,562.6602,630.8458Q552.63727,628.67126,540.4711,628.6225 Z"/>
</g>
</g>
<g>
<g style="fill:rgb(253,217,8); fill-opacity:1.0; stroke-linejoin: miter">
<path d="M553.8848,644.8423Q567.97186,644.89874,576.2719,650.9083Q584.3586,656.91724,584.3099,669.0832Q584.2591,681.67615,576.5496,688.04846Q568.841,694.2076,554.3272,694.1494L538.74615,694.08685L538.94086,645.63605Q541.7172,645.2203,545.7734,645.0232Q549.61615,644.8252,553.8848,644.8423 Z M556.60284,712.0874Q564.2869,712.11816,570.8973,713.6389Q577.50885,714.946,582.4041,718.38074Q587.0871,721.60114,589.8394,727.16174Q592.5927,732.5088,592.561,740.4061Q592.5284,748.51666,589.51874,753.8405Q586.50995,758.9512,581.3746,762.132Q576.2399,765.09985,569.40485,766.3529Q562.78314,767.60706,555.0994,767.57605Q550.61725,767.55804,545.9224,767.3258Q541.441,767.09454,538.4548,766.6556L538.67426,712.01544 Z M551.81915,627.75885Q542.00104,627.71936,532.39374,628.3213Q522.7863,628.9232,517.4461,629.96893L516.8298,783.4306Q525.363,784.5322,534.9643,785.4243Q544.56647,786.1034,552.67694,786.1358Q565.6967,786.1881,577.2319,783.88654Q588.5534,781.5842,597.11273,776.28253Q605.4583,770.98,610.4024,762.2488Q615.34576,753.7308,615.39557,741.3513Q615.4368,731.1063,612.2646,723.8365Q609.3045,716.78094,604.41425,712.06573Q599.524,707.3505,593.34454,704.76434Q587.3785,702.1792,581.4047,701.5147Q586.1055,700.253,590.5998,697.28284Q595.0932,694.5261,598.5262,690.05756Q601.9583,685.8024,604.1159,680.0482Q606.0594,674.50665,606.08575,667.88983Q606.1297,657.0046,602.10516,649.3043Q598.2933,641.8184,591.05585,636.8803Q584.0313,632.15656,574.0081,629.98193Q563.98517,627.8074,551.81915,627.75885 Z"/>
</g>
</g>
<g style="fill:rgb(253,217,8); fill-opacity:1.0; stroke-linejoin: miter">
<path d="M520.8464,613.668L531.3494,613.74414L541.85236,613.8199Q541.7846,623.1928,541.71686,632.5658Q531.2139,632.49005,520.7109,632.41425Q520.7786,623.0412,520.8464,613.668"/>
</g>
<g style="fill:rgb(253,217,8); fill-opacity:1.0; stroke-linejoin: miter">
<path d="M552.9018,613.8998L573.9078,614.05176L573.7724,632.79755L552.7664,632.6458L552.9018,613.8998"/>
</g>
<g style="fill:rgb(253,217,8); fill-opacity:1.0; stroke-linejoin: miter">
<path d="M550.59674,779.8395L561.0997,779.9159L571.6026,779.99225Q571.51263,792.44104,571.4224,804.8893Q560.9195,804.81384,550.4167,804.73834Q550.5068,792.2892,550.59674,779.8395"/>
</g>
<g style="fill:rgb(253,217,8); fill-opacity:1.0; stroke-linejoin: miter">
<path d="M519.3809,785.7667L540.3869,785.9187L540.2513,804.66394L519.2452,804.5125L519.3809,785.7667"/>
</g>
<g style="fill:rgb(253,217,8); fill-opacity:1.0; stroke-linejoin: miter">
<path d="M528.5638,627.777L484.45334,627.4589L484.2617,653.9588L528.37225,654.2786L528.5638,627.777"/>
</g>
<g style="fill:rgb(253,217,8); fill-opacity:1.0; stroke-linejoin: miter">
<path d="M527.59796,761.3408L505.5428,761.1818L483.48752,761.0228Q483.3917,774.27264,483.29593,787.52264Q505.35126,787.6827,527.40643,787.8425Q527.50226,774.5915,527.59796,761.3408"/>
</g>
</g>
<g style="fill:rgb(255,229,0); fill-opacity:0.99607843; stroke-linejoin: miter">
<path d="M527.3648,761.3393L527.13885,761.33795L527.13885,761.3385L527.13885,761.33795L527.3648,761.3393 Z"/>
</g>
<g style="fill:rgb(255,229,0); fill-opacity:0.99607843; stroke-linejoin: miter">
<path d="M527.13165,761.33746L527.13165,761.33795L527.13885,761.3385L527.13885,761.33795L527.13165,761.33746 Z"/>
</g>
<g style="fill:rgb(255,229,0); fill-opacity:0.99607843; stroke-linejoin: miter">
<path d="M527.32623,712.8796L527.13165,761.33746L527.3648,761.3393L527.13165,761.33795L527.32623,712.8796 Z"/>
</g>
<g style="fill:rgb(72,72,72); fill-opacity:1.0; stroke-linejoin: miter">
<path d="M83.85194,464.29733L85.2273,465.21454C147.39636,501.06238,179.96657,521.3825,184.29128,524.56866C207.05931,541.3432,226.96115,556.8871,242.77441,572.9029L225.61844,601.39185C229.63544,604.9544,230.89816,607.2146,229.40698,608.1726L3.131073,899.6176L31.285194,921.76526L266.36063,636.0865C266.58786,634.15027,269.59097,635.3383,275.36957,639.6509L297.6664,612.8286C320.5418,621.2655,369.42224,663.5413,444.30786,739.65546C380.49738,661.22076,335.35822,612.0662,308.89,592.1926C308.3416,591.4099,308.3587,590.5427,308.94125,589.5911L322.57504,573.9609C317.36395,563.97894,312.2054,557.13043,307.11917,553.38763C301.60535,549.3299,293.6666,545.6268,283.28207,542.30676L269.23358,557.67523C268.60352,558.27423,267.81403,558.42004,266.86536,558.1127C208.31874,515.5333,147.31421,484.2616,83.85194,464.29733 Z"/>
</g>
<g style="fill:rgb(255,152,0); fill-opacity:0.99607843; stroke-linejoin: miter">
<path d="M229.34814,608.2484L3.131073,899.6176L31.285194,921.76526L266.3393,636.1123L229.34814,608.2484 Z"/>
</g>
<g style="fill:rgb(214,129,4); fill-opacity:0.99607843; stroke-linejoin: miter">
<path d="M261.7188,632.5913L139.10153,780.1459L25.317497,917.0709L31.285194,921.76526L266.36063,636.0865C266.36218,636.0727,266.3639,636.05896,266.36584,636.0456L261.7188,632.5913 Z"/>
</g>
<g style="fill:rgb(214,129,4); fill-opacity:0.99607843; stroke-linejoin: miter">
<path d="M260.38394,630.0808L260.38394,630.0808L260.38394,630.0808L260.38394,630.0808"/>
</g>
</g>
</svg>