<svg height="480pt" viewBox="0 -8 480 480" width="480pt" xmlns="http://www.w3.org/2000/svg"><path d="m424 240.144531c0 101.621094-82.378906 184-184 184s-184-82.378906-184-184c0-101.621093 82.378906-184 184-184s184 82.378907 184 184zm0 0" fill="#f3af3e"/><path d="m384 240.144531c0 8.835938-7.164062 16-16 16s-16-7.164062-16-16c0-8.835937 7.164062-16 16-16s16 7.164063 16 16zm0 0" fill="#da922a"/><path d="m128 240.144531c0 8.835938-7.164062 16-16 16s-16-7.164062-16-16c0-8.835937 7.164062-16 16-16s16 7.164063 16 16zm0 0" fill="#da922a"/><path d="m112 24.144531c0 8.835938-7.164062 16-16 16s-16-7.164062-16-16c0-8.835937 7.164062-16 16-16s16 7.164063 16 16zm0 0" fill="#da922a"/><path d="m464 24.144531c0 8.835938-7.164062 16-16 16s-16-7.164062-16-16c0-8.835937 7.164062-16 16-16s16 7.164063 16 16zm0 0" fill="#da922a"/><path d="m448 432.144531c0 8.835938-7.164062 16-16 16s-16-7.164062-16-16c0-8.835937 7.164062-16 16-16s16 7.164063 16 16zm0 0" fill="#da922a"/><path d="m280 240.144531c24.84375-.144531 45.476562-19.226562 47.554688-43.984375 2.078124-24.757812-15.082032-47.011718-39.554688-51.296875v-40.71875h-32v40h-32v-40h-32v40h-32v32h32v128h-32v32h32v40h32v-40h32v40h32v-40.71875c24.472656-4.285156 41.632812-26.539062 39.554688-51.296875-2.078126-24.761718-22.710938-43.839844-47.554688-43.984375zm0 0" fill="#fbd699"/><path d="m272 208.144531h-40v-32h40c8.835938 0 16 7.164063 16 16 0 8.835938-7.164062 16-16 16zm0 0" fill="#f3af3e"/><path d="m272 304.144531h-40v-32h40c8.835938 0 16 7.164063 16 16 0 8.835938-7.164062 16-16 16zm0 0" fill="#f3af3e"/><g fill="#ea9d2d"><path d="m112 264.144531c-13.253906 0-24-10.746093-24-24 0-13.253906 10.746094-24 24-24s24 10.746094 24 24c0 13.253907-10.746094 24-24 24zm0-32c-4.417969 0-8 3.582031-8 8s3.582031 8 8 8 8-3.582031 8-8-3.582031-8-8-8zm0 0"/><path d="m96 48.144531c-13.253906 0-24-10.746093-24-24 0-13.253906 10.746094-24 24-24s24 10.746094 24 24c0 13.253907-10.746094 24-24 24zm0-32c-4.417969 0-8 3.582031-8 8s3.582031 8 8 8 8-3.582031 8-8-3.582031-8-8-8zm0 0"/><path d="m448 48.144531c-13.253906 0-24-10.746093-24-24 0-13.253906 10.746094-24 24-24s24 10.746094 24 24c0 13.253907-10.746094 24-24 24zm0-32c-4.417969 0-8 3.582031-8 8s3.582031 8 8 8 8-3.582031 8-8-3.582031-8-8-8zm0 0"/><path d="m96 248.144531h-64c-4.417969 0-8-3.582031-8-8v-48h-16c-4.417969 0-8-3.582031-8-8s3.582031-8 8-8h24c4.417969 0 8 3.582031 8 8v48h56c4.417969 0 8 3.582031 8 8s-3.582031 8-8 8zm0 0"/><path d="m32 328.144531h-24c-4.417969 0-8-3.582031-8-8s3.582031-8 8-8h16v-24c0-4.417969 3.582031-8 8-8h88c4.417969 0 8 3.582031 8 8s-3.582031 8-8 8h-80v24c0 4.417969-3.582031 8-8 8zm0 0"/><path d="m48 440.144531c-3.234375 0-6.152344-1.949219-7.390625-4.9375-1.238281-2.992187-.550781-6.429687 1.734375-8.71875l24-24c1.5-1.5 3.535156-2.34375 5.65625-2.34375h42.703125l17.601563-41.367187c1.761718-4.003906 6.417968-5.847656 10.445312-4.140625s5.933594 6.335937 4.28125 10.386719l-19.671875 46.25c-1.253906 2.953124-4.152344 4.871093-7.359375 4.871093h-44.6875l-21.65625 21.65625c-1.5 1.5-3.535156 2.34375-5.65625 2.34375zm0 0"/><path d="m128 184.144531c-2.121094 0-4.15625-.84375-5.65625-2.34375l-21.65625-21.65625h-60.6875c-4.417969 0-8-3.582031-8-8v-24h-24c-4.417969 0-8-3.582031-8-8s3.582031-8 8-8h32c4.417969 0 8 3.582031 8 8v24h56c2.121094 0 4.15625.84375 5.65625 2.34375l24 24c2.285156 2.289063 2.972656 5.726563 1.734375 8.71875-1.238281 2.988281-4.15625 4.9375-7.390625 4.9375zm0 0"/><path d="m160 120.144531c-1.238281 0-2.460938-.289062-3.566406-.839843l-64-32c-2.71875-1.355469-4.433594-4.125-4.433594-7.160157v-40c0-4.417969 3.582031-8 8-8s8 3.582031 8 8v35.054688l59.574219 29.785156c3.324219 1.65625 5.070312 5.382813 4.21875 8.996094-.851563 3.613281-4.078125 6.167969-7.792969 6.164062zm0 0"/><path d="m368 264.144531c-13.253906 0-24-10.746093-24-24 0-13.253906 10.746094-24 24-24s24 10.746094 24 24c0 13.253907-10.746094 24-24 24zm0-32c-4.417969 0-8 3.582031-8 8s3.582031 8 8 8 8-3.582031 8-8-3.582031-8-8-8zm0 0"/><path d="m432 456.144531c-13.253906 0-24-10.746093-24-24 0-13.253906 10.746094-24 24-24s24 10.746094 24 24c0 13.253907-10.746094 24-24 24zm0-32c-4.417969 0-8 3.582031-8 8s3.582031 8 8 8 8-3.582031 8-8-3.582031-8-8-8zm0 0"/><path d="m448 248.144531h-64c-4.417969 0-8-3.582031-8-8s3.582031-8 8-8h56v-48c0-4.417969 3.582031-8 8-8h24c4.417969 0 8 3.582031 8 8s-3.582031 8-8 8h-16v48c0 4.417969-3.582031 8-8 8zm0 0"/><path d="m472 328.144531h-24c-4.417969 0-8-3.582031-8-8v-24h-80c-4.417969 0-8-3.582031-8-8s3.582031-8 8-8h88c4.417969 0 8 3.582031 8 8v24h16c4.417969 0 8 3.582031 8 8s-3.582031 8-8 8zm0 0"/><path d="m328 128.144531c-1.402344.007813-2.785156-.355469-4-1.058593-3.835938-2.191407-5.167969-7.074219-2.976562-10.910157l32-56c1.429687-2.503906 4.09375-4.042969 6.976562-4.03125h66.230469l6.175781-18.527343c1.398438-4.199219 5.933594-6.46875 10.128906-5.074219 4.199219 1.398437 6.46875 5.929687 5.074219 10.128906l-8 24c-1.09375 3.273437-4.160156 5.480469-7.609375 5.472656h-67.359375l-29.695313 52c-1.433593 2.480469-4.082031 4.003907-6.945312 4zm0 0"/><path d="m352 184.144531c-3.234375 0-6.152344-1.949219-7.390625-4.9375-1.238281-2.992187-.550781-6.429687 1.734375-8.71875l24-24c1.5-1.5 3.535156-2.34375 5.65625-2.34375h56v-24c0-4.417969 3.582031-8 8-8h32c4.417969 0 8 3.582031 8 8s-3.582031 8-8 8h-24v24c0 4.417969-3.582031 8-8 8h-60.6875l-21.65625 21.65625c-1.5 1.5-3.535156 2.34375-5.65625 2.34375zm0 0"/><path d="m432 424.144531c-3.667969-.003906-6.863281-2.503906-7.753906-6.066406l-6.492188-25.933594h-65.753906c-3.671875 0-6.871094-2.503906-7.761719-6.066406l-8-32c-.765625-2.796875.042969-5.792969 2.113281-7.824219 2.074219-2.03125 5.082032-2.785156 7.867188-1.964844 2.785156.824219 4.902344 3.085938 5.542969 5.917969l6.484375 25.9375h65.753906c3.671875 0 6.871094 2.5 7.761719 6.0625l8 32c1.066406 4.285157-1.535157 8.621094-5.816407 9.695313-.636718.160156-1.289062.238281-1.945312.242187zm0 0"/></g><path d="m56 440.144531c0 8.835938-7.164062 16-16 16s-16-7.164062-16-16c0-8.835937 7.164062-16 16-16s16 7.164063 16 16zm0 0" fill="#da922a"/><path d="m40 464.144531c-13.253906 0-24-10.746093-24-24 0-13.253906 10.746094-24 24-24s24 10.746094 24 24c0 13.253907-10.746094 24-24 24zm0-32c-4.417969 0-8 3.582031-8 8s3.582031 8 8 8 8-3.582031 8-8-3.582031-8-8-8zm0 0" fill="#ea9d2d"/><path d="m296 192.144531c0-13.253906-10.746094-24-24-24h-40c-4.417969 0-8 3.582031-8 8v32c0 4.417969 3.582031 8 8 8h40c13.253906 0 24-10.746093 24-24zm-24 8h-32v-16h32c4.417969 0 8 3.582031 8 8s-3.582031 8-8 8zm0 0"/><path d="m232 264.144531c-4.417969 0-8 3.582031-8 8v32c0 4.417969 3.582031 8 8 8h40c13.253906 0 24-10.746093 24-24 0-13.253906-10.746094-24-24-24zm48 24c0 4.417969-3.582031 8-8 8h-32v-16h32c4.417969 0 8 3.582031 8 8zm0 0"/><path d="m448 152.144531v-24h24c4.417969 0 8-3.582031 8-8s-3.582031-8-8-8h-32c-4.417969 0-8 3.582031-8 8v24h-25.832031c-12.808594-22.082031-29.855469-41.410156-50.167969-56.871093l8.640625-15.128907h67.359375c3.445312 0 6.503906-2.203125 7.59375-5.472656l6.246094-18.742187c.71875.0625 1.425781.214843 2.160156.214843 11.511719.035157 21.433594-8.082031 23.683594-19.371093 2.246094-11.292969-3.8125-22.589844-14.460938-26.964844-10.644531-4.378906-22.898437-.601563-29.238281 9.003906-6.34375 9.609375-4.992187 22.359375 3.214844 30.425781l-4.96875 14.90625h-66.230469c-2.863281-.007812-5.511719 1.519531-6.945312 4l-10.246094 17.933594c-67.019532-42.679687-153.433594-39.53125-217.167969 7.914063l-21.640625-10.792969v-28.527344c11.019531-3.894531 17.632812-15.164063 15.65625-26.6875-1.976562-11.519531-11.96875-19.9414062-23.65625-19.9414062s-21.679688 8.4218752-23.65625 19.9414062c-1.976562 11.523437 4.636719 22.792969 15.65625 26.6875v33.472656c0 3.03125 1.710938 5.804688 4.425781 7.160157l19.644531 9.824218c-15.136718 13.5625-28.042968 29.429688-38.238281 47.015625h-25.832031v-24c0-4.417969-3.582031-8-8-8h-32c-4.417969 0-8 3.582031-8 8s3.582031 8 8 8h24v24c0 4.417969 3.582031 8 8 8h25.527344c-10.429688 22.636719-16.316406 47.097657-17.328125 72h-8.199219v-48c0-4.417969-3.582031-8-8-8h-24c-4.417969 0-8 3.582031-8 8s3.582031 8 8 8h16v48c0 4.417969 3.582031 8 8 8h16.199219c.433593 10.757813 1.769531 21.464844 4 32h-20.199219c-4.417969 0-8 3.582031-8 8v24h-16c-4.417969 0-8 3.582031-8 8s3.582031 8 8 8h24c4.417969 0 8-3.582031 8-8v-24h16.351562c11.25 36.628907 33.167969 69.070313 62.953126 93.175781l-4.601563 10.824219h-42.703125c-2.121094 0-4.15625.84375-5.65625 2.34375l-16 16-.046875.070313c-3.207031-1.570313-6.726563-2.398438-10.296875-2.414063-13.253906 0-24 10.746094-24 24 0 13.253907 10.746094 24 24 24s24-10.746093 24-24c-.011719-3.570312-.832031-7.089843-2.398438-10.296875l.070313-.046875 13.640625-13.65625h44.6875c3.207031 0 6.105469-1.917969 7.359375-4.871093l5.152344-12.121094c68.511719 46.445312 159.109375 43.617187 224.59375-7.007813h60.648437l4.527344 18.09375c-10.742188 4.683594-16.558594 16.410157-13.785156 27.796875 2.773437 11.382813 13.332031 19.121094 25.023437 18.335938 11.691407-.785156 21.121094-9.863282 22.351563-21.515625 1.226562-11.652344-6.105469-22.5-17.375-25.703125l-6.734375-26.945313c-.890625-3.5625-4.089844-6.0625-7.761719-6.0625h-48.617188c22.421876-22.292969 39-49.773437 48.265626-80h16.351562v24c0 4.417969 3.582031 8 8 8h24c4.417969 0 8-3.582031 8-8s-3.582031-8-8-8h-16v-24c0-4.417969-3.582031-8-8-8h-20.222656c2.230468-10.535156 3.566406-21.242187 4-32h16.222656c4.417969 0 8-3.582031 8-8v-48h16c4.417969 0 8-3.582031 8-8s-3.582031-8-8-8h-24c-4.417969 0-8 3.582031-8 8v48h-8.199219c-1.011719-24.902343-6.898437-49.363281-17.328125-72h25.527344c4.417969 0 8-3.582031 8-8zm0-136c4.417969 0 8 3.582031 8 8s-3.582031 8-8 8-8-3.582031-8-8 3.582031-8 8-8zm-352 16c-4.417969 0-8-3.582031-8-8s3.582031-8 8-8 8 3.582031 8 8-3.582031 8-8 8zm-56 416c-4.417969 0-8-3.582031-8-8s3.582031-8 8-8 8 3.582031 8 8-3.582031 8-8 8zm392-24c4.417969 0 8 3.582031 8 8s-3.582031 8-8 8-8-3.582031-8-8 3.582031-8 8-8zm-16.199219-192h-25.273437c-3.894532-11.019531-15.164063-17.632812-26.683594-15.65625-11.523438 1.976563-19.941406 11.964844-19.941406 23.65625 0 11.6875 8.417968 21.675781 19.941406 23.652344 11.519531 1.976563 22.789062-4.632813 26.683594-15.652344h25.273437c-.496093 10.78125-1.980469 21.492188-4.441406 32h-51.359375c-4.417969 0-8 3.582031-8 8s3.582031 8 8 8h46.816406c-9.78125 28.976563-26.925781 54.917969-49.753906 75.269531l-5.300781-21.207031c-.640625-2.832031-2.757813-5.09375-5.542969-5.917969-2.785156-.820312-5.792969-.066406-7.867188 1.964844-2.070312 2.03125-2.878906 5.027344-2.113281 7.824219l7.097657 28.402344c-60.757813 44.285156-142.980469 44.929687-204.425782 1.597656l8.097656-19.0625c1.652344-4.050781-.253906-8.679687-4.28125-10.386719-4.027343-1.710937-8.683593.136719-10.445312 4.140625l-6.402344 15.160157c-24.269531-20.695313-42.476562-47.574219-52.695312-77.785157h46.816406c4.417969 0 8-3.582031 8-8s-3.582031-8-8-8h-51.359375c-2.460937-10.507812-3.945313-21.21875-4.441406-32h25.273437c3.894532 11.019531 15.164063 17.628907 26.683594 15.652344 11.523438-1.976563 19.941406-11.964844 19.941406-23.652344 0-11.691406-8.417968-21.679687-19.941406-23.65625-11.519531-1.976562-22.789062 4.636719-26.683594 15.65625h-25.273437c1.125-25.09375 7.640625-49.652343 19.113281-72h17.375l21.65625 21.65625c3.140625 3.03125 8.128906 2.988281 11.214844-.097656 3.085937-3.085937 3.128906-8.078125.097656-11.214844l-24-24c-1.5-1.5-3.535156-2.34375-5.65625-2.34375h-11.398438c9.636719-14.753906 21.417969-27.992187 34.949219-39.28125l28.875 14.402344c3.953125 1.972656 8.757813.367187 10.734375-3.585937 1.976563-3.953126.371094-8.761719-3.585937-10.734376l-21.726563-10.867187c58.144532-39.1875 134.03125-40.015625 193.015625-2.101563l-13.808593 24.167969c-2.1875 3.835938-.855469 8.71875 2.976562 10.910157 1.203125.707031 2.574219 1.082031 3.96875 1.089843 2.867188.007813 5.519531-1.519531 6.953125-4l13.03125-22.800781c15.40625 11.996094 28.726563 26.460938 39.414063 42.800781h-11.398438c-2.121094 0-4.15625.84375-5.65625 2.34375l-24 24c-2.078125 2.007813-2.914062 4.984375-2.179688 7.78125.730469 2.796875 2.914063 4.980469 5.710938 5.710938 2.796875.734375 5.773438-.101563 7.78125-2.179688l21.65625-21.65625h17.375c11.472656 22.347657 17.988281 46.90625 19.113281 72zm-39.800781 8c0 4.417969-3.582031 8-8 8s-8-3.582031-8-8 3.582031-8 8-8 8 3.582031 8 8zm-272 0c0-4.417969 3.582031-8 8-8s8 3.582031 8 8-3.582031 8-8 8-8-3.582031-8-8zm0 0"/><path d="m336 192.144531c-.054688-24.734375-16.304688-46.507812-40-53.601562v-34.398438c0-4.417969-3.582031-8-8-8h-32c-4.417969 0-8 3.582031-8 8v32h-16v-32c0-4.417969-3.582031-8-8-8h-32c-4.417969 0-8 3.582031-8 8v32h-24c-4.417969 0-8 3.582031-8 8v32c0 4.417969 3.582031 8 8 8h24v112h-24c-4.417969 0-8 3.582031-8 8v32c0 4.417969 3.582031 8 8 8h24v32c0 4.417969 3.582031 8 8 8h32c4.417969 0 8-3.582031 8-8v-32h16v32c0 4.417969 3.582031 8 8 8h32c4.417969 0 8-3.582031 8-8v-34.402343c21.21875-6.367188 36.6875-24.652344 39.457031-46.632813 2.769531-21.984375-7.679687-43.53125-26.65625-54.964844 16.867188-10.113281 27.191407-28.335937 27.199219-48zm-72-80h16v24h-16zm-64 0h16v24h-16zm16 256h-16v-24h16zm64 0h-16v-24h16zm0-120c22.089844 0 40 17.90625 40 40 0 22.089844-17.910156 40-40 40h-112v-16h24c4.417969 0 8-3.582031 8-8v-128c0-4.417969-3.582031-8-8-8h-24v-16h112c22.089844 0 40 17.90625 40 40 0 22.089844-17.910156 40-40 40-4.417969 0-8 3.582031-8 8s3.582031 8 8 8zm0 0"/></svg>